<?xml version="1.0" standalone="no"?>
<!DOCTYPE svg PUBLIC "-//W3C//DTD SVG 20010904//EN"
 "http://www.w3.org/TR/2001/REC-SVG-20010904/DTD/svg10.dtd">
<svg version="1.0" xmlns="http://www.w3.org/2000/svg"
 width="608.000000pt" height="608.000000pt" viewBox="0 0 608.000000 608.000000"
 preserveAspectRatio="xMidYMid meet">
<metadata>
Created by potrace 1.11, written by Peter Selinger 2001-2013
</metadata>
<g transform="translate(0.000000,608.000000) scale(0.100000,-0.100000)"
fill="#000000" stroke="none">
<path d="M3485 5585 c-33 -7 -71 -15 -85 -18 -39 -8 -163 -59 -181 -74 -8 -7
-19 -13 -23 -13 -13 0 -90 -64 -144 -120 -110 -113 -159 -267 -130 -404 39
-182 183 -256 433 -222 51 7 258 74 330 107 77 35 285 118 285 113 0 -2 16 2
35 10 20 9 36 15 38 15 1 0 13 2 27 5 110 25 174 31 330 30 168 -1 276 -20
387 -69 31 -14 58 -25 60 -25 3 0 -11 18 -30 39 -19 22 -41 50 -48 63 -6 12
-15 25 -19 28 -3 3 -19 23 -36 45 -82 111 -284 278 -414 343 -41 20 -77 40
-80 43 -10 11 -191 70 -260 84 -3 0 -23 5 -45 9 -78 17 -92 18 -230 20 -82 2
-165 -2 -200 -9z"/>
<path d="M221 5348 c-73 -20 -165 -104 -192 -174 -19 -50 -22 -67 -24 -154 -4
-101 6 -172 41 -281 44 -140 86 -217 206 -384 57 -79 81 -141 84 -218 2 -60
-15 -150 -34 -182 -4 -5 -8 -14 -9 -20 -1 -5 -25 -70 -53 -144 -60 -156 -85
-244 -95 -326 -4 -34 -14 -107 -20 -144 -23 -142 -23 -477 0 -646 11 -83 22
-147 28 -175 2 -8 7 -33 11 -55 4 -22 12 -51 17 -65 5 -14 10 -34 12 -45 2
-11 9 -33 15 -48 7 -16 12 -32 12 -37 0 -19 74 -200 116 -284 57 -114 135
-246 146 -246 4 0 8 -5 8 -10 0 -9 35 -66 50 -80 3 -3 25 -30 50 -60 221 -271
496 -491 842 -674 58 -31 113 -56 121 -56 9 0 17 -3 19 -7 3 -9 108 -54 203
-88 33 -12 69 -25 80 -29 124 -46 387 -111 550 -135 44 -7 91 -15 105 -18 14
-3 43 -7 65 -9 22 -2 58 -5 80 -9 77 -10 180 -19 320 -26 23 -1 363 12 390 15
17 2 62 7 100 10 68 7 115 13 158 22 12 2 39 6 62 9 22 3 48 8 57 11 17 5 43
10 89 19 21 4 103 25 269 70 28 7 145 46 165 54 11 5 38 15 60 24 197 75 415
184 575 288 25 16 51 32 59 36 8 3 22 13 30 20 9 8 47 37 86 64 38 28 72 54
75 57 3 4 21 19 42 34 20 15 52 42 71 60 20 18 44 40 54 49 24 21 203 210 227
240 68 87 156 209 156 218 0 5 4 11 9 13 14 5 198 338 236 427 58 137 96 273
121 436 15 99 8 419 -11 485 -2 8 -6 33 -10 54 -18 121 -119 392 -180 483 -13
19 -27 43 -30 54 -4 10 -11 19 -16 19 -5 0 -9 6 -9 13 0 7 -8 22 -18 33 -10
10 -29 35 -42 54 -41 58 -70 90 -170 190 -112 111 -247 210 -380 278 -85 44
-239 108 -280 117 -8 2 -30 8 -47 14 -18 5 -33 7 -33 4 0 -3 -6 -1 -12 5 -7 5
-31 12 -53 15 -66 10 -108 16 -150 23 -73 12 -280 10 -385 -3 -136 -17 -328
-64 -462 -113 -105 -38 -270 -117 -276 -132 -2 -5 -8 -8 -13 -8 -21 0 -272
-172 -320 -219 -9 -9 -36 -32 -60 -51 -81 -66 -289 -280 -374 -386 -16 -20
-35 -42 -41 -48 -6 -7 -60 -77 -120 -156 -60 -80 -117 -154 -126 -165 -145
-176 -224 -260 -318 -332 -30 -24 -59 -46 -65 -51 -26 -20 -118 -73 -168 -96
-66 -30 -226 -78 -238 -71 -4 3 -10 1 -13 -4 -4 -5 -66 -8 -144 -7 -125 3
-164 7 -214 22 -9 3 -25 6 -35 8 -63 13 -242 97 -251 118 -2 4 -9 8 -17 8 -21
0 -141 117 -181 177 -50 75 -81 155 -90 233 -6 56 -2 235 6 235 1 0 4 13 6 30
17 100 88 252 147 313 84 86 172 88 412 8 160 -53 169 -55 347 -60 70 -2 149
1 175 6 27 5 62 12 78 14 53 9 169 71 213 115 76 74 103 168 77 272 -30 123
-104 227 -245 348 -14 11 -55 38 -91 59 -254 149 -544 160 -819 31 -36 -16
-78 -42 -94 -57 l-29 -28 8 30 c19 73 23 137 11 189 -3 17 -9 46 -12 65 -3 19
-12 50 -20 68 -7 18 -13 33 -12 35 1 1 -5 13 -12 27 -8 14 -13 28 -12 33 1 4
-2 7 -7 7 -5 0 -13 9 -16 21 -33 102 -206 254 -354 310 -63 24 -196 33 -250
17z"/>
</g>
</svg>
